<?xml version="1.0" encoding="UTF-8"?>
<svg id="uuid-e8a4223d-e381-470e-9cc8-b3e09488508e" data-name="Layer 1" xmlns="http://www.w3.org/2000/svg" xmlns:xlink="http://www.w3.org/1999/xlink" viewBox="0 0 4000 4000">
  <defs>
    <style>
      .uuid-07de25b1-3cca-429f-9d19-695cb00d9720 {
        filter: url(#uuid-148741ff-cce6-437f-8de1-fda89d3b9329);
      }

      .uuid-3bf38a7d-6219-4f5d-b4b3-8920a3411bc1 {
        fill: #f8bf71;
      }

      .uuid-3bf38a7d-6219-4f5d-b4b3-8920a3411bc1, .uuid-aa8ca01e-7628-4306-8a0b-14985e97dc3e, .uuid-93cfd252-e640-4565-8357-52b3b3c9825f, .uuid-049c75fd-dda6-4fc8-9830-10bcbc9471bd, .uuid-d785511d-3979-4707-962a-521864a2c111, .uuid-df58eeab-7c64-45a4-bee5-9ff044f51c20, .uuid-d920cf70-5d8f-4b30-8b18-6a669628aa7b, .uuid-65e866b5-a236-487a-9b36-13018f1aa987, .uuid-3f2705ab-d736-485d-970c-7e4ec78f2151, .uuid-09b35983-f5f7-401b-8002-d0a1aeb57975, .uuid-7a41cfb8-fba6-433a-ac5e-fb22a1e03345, .uuid-20581a1c-8c36-4e6b-ba8c-80399f6df6f6, .uuid-43589a43-b913-45b0-a7ec-163a1427e52e, .uuid-372cbb02-677c-4059-8bdf-203c0d64f3e4, .uuid-5c7eb058-5a68-4d31-9c06-87d464660506, .uuid-3e509df5-f815-4553-a8f9-ec0f3db9d76c, .uuid-8ba2c08d-60ce-4fe5-9e04-94565591a8e9, .uuid-636e3a12-6ec8-4771-943d-38350f764834, .uuid-87d332c1-b33e-46d6-b8ca-02d34ef3a154, .uuid-cbb6d149-0d62-4a98-af28-84062b2471ac, .uuid-1b6cc7b0-86f4-407e-9a42-f3fde36e2f6f, .uuid-2d6c6eec-3bea-4078-bc18-c5cd495694d2, .uuid-68982d3c-80a9-4866-96bb-cd2e40adc127, .uuid-f43908de-f7ef-44c9-b5ff-165c8d89fc06, .uuid-3454b10f-fb12-445e-99e6-3aaa94eb2f51 {
        stroke-width: 0px;
      }

      .uuid-14c08245-294d-495f-a88f-6b632d6e7304 {
        opacity: .51;
      }

      .uuid-aa8ca01e-7628-4306-8a0b-14985e97dc3e {
        fill: #19b5fe;
      }

      .uuid-93cfd252-e640-4565-8357-52b3b3c9825f {
        fill: url(#uuid-79dad922-af65-4c4a-aa34-d5c44bf1bed7);
      }

      .uuid-93cfd252-e640-4565-8357-52b3b3c9825f, .uuid-df58eeab-7c64-45a4-bee5-9ff044f51c20, .uuid-09b35983-f5f7-401b-8002-d0a1aeb57975 {
        mix-blend-mode: multiply;
      }

      .uuid-2d9d3eb9-ed4f-4a16-ab04-0e81beb4b5f1 {
        mask: url(#uuid-f8ee3e64-c1b9-42cf-b06a-ac55fb736e20);
      }

      .uuid-049c75fd-dda6-4fc8-9830-10bcbc9471bd {
        fill: #5f5a57;
      }

      .uuid-d785511d-3979-4707-962a-521864a2c111 {
        fill: #fcf8d0;
      }

      .uuid-df58eeab-7c64-45a4-bee5-9ff044f51c20 {
        fill: url(#uuid-bcc80b86-4381-49ef-84df-7419f74a5eef);
      }

      .uuid-e6ce051b-1361-4915-a78f-5dbb3a8498e3 {
        mask: url(#uuid-db0e7f43-af0e-45de-9a8a-93c22866807d);
      }

      .uuid-d920cf70-5d8f-4b30-8b18-6a669628aa7b {
        fill: #dedde2;
      }

      .uuid-65e866b5-a236-487a-9b36-13018f1aa987 {
        fill: none;
      }

      .uuid-3ee53b8a-0f03-45c8-8a96-efa4b397383b {
        mask: url(#uuid-d3c2b7a3-f887-47f0-81e5-0ec7ad2d8b9d);
      }

      .uuid-3f2705ab-d736-485d-970c-7e4ec78f2151 {
        fill: #8bc34a;
      }

      .uuid-09b35983-f5f7-401b-8002-d0a1aeb57975 {
        fill: url(#uuid-deb0fa20-c45f-4137-80c5-53f2a5321dac);
      }

      .uuid-5ab73530-05e1-40fa-844e-527774fd2ba2 {
        mask: url(#uuid-d2e84131-139e-4b58-800b-da92e04968fe);
      }

      .uuid-d6be69b5-ab6a-4613-b666-6b0ba4585c65 {
        opacity: .58;
      }

      .uuid-7a41cfb8-fba6-433a-ac5e-fb22a1e03345 {
        fill: url(#uuid-2e7b88ed-1ad3-4010-9bbd-c3d64d754218);
        opacity: .47;
      }

      .uuid-20581a1c-8c36-4e6b-ba8c-80399f6df6f6 {
        fill: #102770;
      }

      .uuid-43589a43-b913-45b0-a7ec-163a1427e52e {
        fill: #fff;
      }

      .uuid-397c64ed-511b-4378-a0c9-42d94b7dda67, .uuid-372cbb02-677c-4059-8bdf-203c0d64f3e4, .uuid-68982d3c-80a9-4866-96bb-cd2e40adc127 {
        opacity: .3;
      }

      .uuid-372cbb02-677c-4059-8bdf-203c0d64f3e4 {
        fill: url(#uuid-276233e0-39de-4dca-9afe-d054b41c0527);
      }

      .uuid-5c7eb058-5a68-4d31-9c06-87d464660506 {
        fill: #fbe291;
      }

      .uuid-3e509df5-f815-4553-a8f9-ec0f3db9d76c {
        fill: #f7c714;
      }

      .uuid-59a5f9e5-2980-4b57-9504-75dedaa592ae {
        opacity: .57;
      }

      .uuid-2ffb96f6-c6d4-4072-8551-53eac507162b {
        mask: url(#uuid-1eb39836-7795-4004-ace5-0cbc301e2721);
      }

      .uuid-8ba2c08d-60ce-4fe5-9e04-94565591a8e9 {
        fill: #6cefe6;
      }

      .uuid-636e3a12-6ec8-4771-943d-38350f764834 {
        fill: #22a7f0;
      }

      .uuid-87d332c1-b33e-46d6-b8ca-02d34ef3a154 {
        fill: #ace0f5;
      }

      .uuid-67e269bf-2f61-4c05-b661-b7c351c7ef1d {
        filter: url(#uuid-26934dc7-6188-4148-8135-92c33429aa50);
      }

      .uuid-eee2e308-ca8e-44f7-9cd0-cfce0f812e1a {
        filter: url(#uuid-aedc33e6-2270-4bf6-9694-49b8a1e463bc);
      }

      .uuid-bbf42632-1171-41db-8fb5-7e9b31a626f7 {
        mask: url(#uuid-fc12bb84-840b-465e-81d7-5005f0ecb1e7);
      }

      .uuid-cbb6d149-0d62-4a98-af28-84062b2471ac {
        fill: #e67e22;
      }

      .uuid-1b6cc7b0-86f4-407e-9a42-f3fde36e2f6f {
        fill: #ff5722;
      }

      .uuid-2d6c6eec-3bea-4078-bc18-c5cd495694d2 {
        fill: #3edc81;
      }

      .uuid-68982d3c-80a9-4866-96bb-cd2e40adc127 {
        fill: url(#uuid-b15519f9-194d-4616-822d-03f1d927dee6);
      }

      .uuid-f43908de-f7ef-44c9-b5ff-165c8d89fc06 {
        fill: #fdf5ed;
      }

      .uuid-3454b10f-fb12-445e-99e6-3aaa94eb2f51 {
        fill: #ffca28;
      }
    </style>
    <filter id="uuid-148741ff-cce6-437f-8de1-fda89d3b9329" x="1847.05" y="1322.17" width="908.95" height="579.74" color-interpolation-filters="sRGB" filterUnits="userSpaceOnUse">
      <feFlood flood-color="#fff" result="bg"/>
      <feBlend in="SourceGraphic" in2="bg"/>
    </filter>
    <filter id="uuid-5db74f71-da18-40b3-8218-069c5cc95847" x="1847.05" y="-10192" width="908.95" height="32766" color-interpolation-filters="sRGB" filterUnits="userSpaceOnUse">
      <feFlood flood-color="#fff" result="bg"/>
      <feBlend in="SourceGraphic" in2="bg"/>
    </filter>
    <mask id="uuid-d3c2b7a3-f887-47f0-81e5-0ec7ad2d8b9d" data-name="mask-1" x="1847.05" y="-10192" width="908.95" height="32766" maskUnits="userSpaceOnUse"/>
    <linearGradient id="uuid-deb0fa20-c45f-4137-80c5-53f2a5321dac" x1="2282.93" y1="1331.63" x2="1763.78" y2="2159.94" gradientTransform="translate(1157.49 -828.38) rotate(29.97)" gradientUnits="userSpaceOnUse">
      <stop offset="0" stop-color="#fff"/>
      <stop offset="1" stop-color="#000"/>
    </linearGradient>
    <mask id="uuid-fc12bb84-840b-465e-81d7-5005f0ecb1e7" data-name="mask" x="1847.05" y="1322.17" width="908.95" height="579.74" maskUnits="userSpaceOnUse">
      <g class="uuid-07de25b1-3cca-429f-9d19-695cb00d9720">
        <g class="uuid-3ee53b8a-0f03-45c8-8a96-efa4b397383b">
          <polygon class="uuid-09b35983-f5f7-401b-8002-d0a1aeb57975" points="2756.01 1499.21 1865.22 1901.91 1847.05 1861.72 2055.62 1500.03 2449 1322.17 2756.01 1499.21"/>
        </g>
      </g>
    </mask>
    <linearGradient id="uuid-b15519f9-194d-4616-822d-03f1d927dee6" x1="2282.93" y1="1331.63" x2="1763.78" y2="2159.94" gradientTransform="translate(1157.49 -828.38) rotate(29.97)" gradientUnits="userSpaceOnUse">
      <stop offset="0" stop-color="#fff"/>
      <stop offset="1" stop-color="#25a9e0"/>
    </linearGradient>
    <filter id="uuid-aedc33e6-2270-4bf6-9694-49b8a1e463bc" x="1706.6" y="1549.64" width="1207.8" height="648.22" color-interpolation-filters="sRGB" filterUnits="userSpaceOnUse">
      <feFlood flood-color="#fff" result="bg"/>
      <feBlend in="SourceGraphic" in2="bg"/>
    </filter>
    <filter id="uuid-69d11861-b99d-4237-b881-db196193267c" x="1706.6" y="-10192" width="1207.8" height="32766" color-interpolation-filters="sRGB" filterUnits="userSpaceOnUse">
      <feFlood flood-color="#fff" result="bg"/>
      <feBlend in="SourceGraphic" in2="bg"/>
    </filter>
    <mask id="uuid-f8ee3e64-c1b9-42cf-b06a-ac55fb736e20" data-name="mask-3" x="1706.6" y="-10192" width="1207.8" height="32766" maskUnits="userSpaceOnUse"/>
    <linearGradient id="uuid-79dad922-af65-4c4a-aa34-d5c44bf1bed7" x1="2526" y1="1483.98" x2="2006.84" y2="2312.29" gradientTransform="translate(1157.49 -828.38) rotate(29.97)" gradientUnits="userSpaceOnUse">
      <stop offset="0" stop-color="#fff"/>
      <stop offset="1" stop-color="#000"/>
    </linearGradient>
    <mask id="uuid-1eb39836-7795-4004-ace5-0cbc301e2721" data-name="mask-2" x="1706.6" y="1549.64" width="1207.8" height="648.22" maskUnits="userSpaceOnUse">
      <g class="uuid-eee2e308-ca8e-44f7-9cd0-cfce0f812e1a">
        <g class="uuid-2d9d3eb9-ed4f-4a16-ab04-0e81beb4b5f1">
          <path class="uuid-93cfd252-e640-4565-8357-52b3b3c9825f" d="m2906.79,1651.88l-29.82,51.71-1093.3,494.27-48.55-27.99c-27.25-15.72-36.61-50.56-20.89-77.82l24.87-43.12,1104.37-499.29,42.41,24.46c27.25,15.72,36.61,50.56,20.91,77.78Z"/>
        </g>
      </g>
    </mask>
    <linearGradient id="uuid-276233e0-39de-4dca-9afe-d054b41c0527" x1="2526" y1="1483.98" x2="2006.84" y2="2312.29" xlink:href="#uuid-b15519f9-194d-4616-822d-03f1d927dee6"/>
    <filter id="uuid-26934dc7-6188-4148-8135-92c33429aa50" x="2058.47" y="2086" width="597.98" height="365.13" color-interpolation-filters="sRGB" filterUnits="userSpaceOnUse">
      <feFlood flood-color="#fff" result="bg"/>
      <feBlend in="SourceGraphic" in2="bg"/>
    </filter>
    <filter id="uuid-c5c934d4-6da5-453f-91ba-267493df9b42" x="2058.47" y="-10192" width="597.98" height="32766" color-interpolation-filters="sRGB" filterUnits="userSpaceOnUse">
      <feFlood flood-color="#fff" result="bg"/>
      <feBlend in="SourceGraphic" in2="bg"/>
    </filter>
    <mask id="uuid-db0e7f43-af0e-45de-9a8a-93c22866807d" data-name="mask-5" x="2058.47" y="-10192" width="597.98" height="32766" maskUnits="userSpaceOnUse"/>
    <linearGradient id="uuid-bcc80b86-4381-49ef-84df-7419f74a5eef" x1="2651.31" y1="2050.22" x2="2324.64" y2="2443.01" gradientTransform="translate(1157.49 -828.38) rotate(29.97)" gradientUnits="userSpaceOnUse">
      <stop offset="0" stop-color="#fff"/>
      <stop offset="1" stop-color="#000"/>
    </linearGradient>
    <mask id="uuid-d2e84131-139e-4b58-800b-da92e04968fe" data-name="mask-4" x="2058.47" y="2086" width="597.98" height="365.13" maskUnits="userSpaceOnUse">
      <g class="uuid-67e269bf-2f61-4c05-b661-b7c351c7ef1d">
        <g class="uuid-e6ce051b-1361-4915-a78f-5dbb3a8498e3">
          <polygon class="uuid-df58eeab-7c64-45a4-bee5-9ff044f51c20" points="2656.46 2086 2524.56 2314.72 2222.88 2451.13 2058.47 2356.33 2656.46 2086"/>
        </g>
      </g>
    </mask>
    <linearGradient id="uuid-2e7b88ed-1ad3-4010-9bbd-c3d64d754218" x1="2651.31" y1="2050.22" x2="2324.64" y2="2443.01" xlink:href="#uuid-b15519f9-194d-4616-822d-03f1d927dee6"/>
  </defs>
  <rect class="uuid-43589a43-b913-45b0-a7ec-163a1427e52e" width="4000" height="4000"/>
  <circle class="uuid-8ba2c08d-60ce-4fe5-9e04-94565591a8e9" cx="2015" cy="1960.67" r="1204.3"/>
  <g>
    <path class="uuid-1b6cc7b0-86f4-407e-9a42-f3fde36e2f6f" d="m1643.31,1970.79l-1.41,1.81c-25.05,32.11-71.36,37.79-103.47,12.74l-47.34-36.97c29.98,21.8,120.25-93.75,92.33-117.83l47.16,36.78c32.09,25.11,37.79,71.36,12.74,103.47Z"/>
    <g class="uuid-397c64ed-511b-4378-a0c9-42d94b7dda67">
      <path class="uuid-20581a1c-8c36-4e6b-ba8c-80399f6df6f6" d="m1652.51,1955.51c-2.4,5.32-5.43,10.49-9.21,15.28l-1.41,1.81c-25.05,32.11-71.36,37.79-103.47,12.74l-47.34-36.97c10.54,7.68,28.58-1.67,46.26-18.07l28.48,22.23c25.83,20.16,60.93,20.43,86.7,2.98Z"/>
    </g>
    <g class="uuid-14c08245-294d-495f-a88f-6b632d6e7304">
      <path class="uuid-43589a43-b913-45b0-a7ec-163a1427e52e" d="m1643.31,1970.79l-1.41,1.81c-5.19,6.61-11.26,12.18-17.96,16.49,17.32-31.18,9.86-71.09-19.13-93.8l-25.64-19.98c9.9-19.38,13.36-36.89,4.25-44.77l47.16,36.78c32.09,25.11,37.79,71.36,12.74,103.47Z"/>
    </g>
    <path class="uuid-3e509df5-f815-4553-a8f9-ec0f3db9d76c" d="m1491.08,1948.37l-.44-.33-38.36-30q-.06-.02-.11-.04l-.06-.02-261.43-204.12c-.63-.52-1.26-1.04-1.81-1.6-3.7-3.34-6.64-7.48-8.54-12.14l-52.77-130.5,139.47,19.5c5.08.71,9.9,2.58,14.16,5.55.56.37,1.11.74,1.65,1.17l261.43,204.12.06.02,38.48,30.03.11.04c.2.13.33.3.52.48,27.92,24.08-62.35,139.64-92.33,117.83Z"/>
    <path class="uuid-3bf38a7d-6219-4f5d-b4b3-8920a3411bc1" d="m1188.87,1712.27c-3.7-3.34-6.64-7.48-8.54-12.14l-52.77-130.5,139.47,19.5c5.08.71,9.9,2.58,14.16,5.55,24.47,25.71-61.81,135.99-92.31,117.59Z"/>
    <path class="uuid-d785511d-3979-4707-962a-521864a2c111" d="m1491.08,1948.37c-.17-.06-.26-.15-.41-.26l-.04-.07-38.48-30.03q.06.02.11.04c29.74,22.9,121.16-94.07,92.31-117.78l38.2,29.76.11.04c.2.13.33.3.52.48,27.92,24.08-62.35,139.64-92.33,117.83Z"/>
    <g class="uuid-397c64ed-511b-4378-a0c9-42d94b7dda67">
      <path class="uuid-20581a1c-8c36-4e6b-ba8c-80399f6df6f6" d="m1550.94,1916.31c-21.42,24.42-46.58,41.71-59.86,32.06l-.44-.33-38.36-30q-.06-.02-.11-.04l-.06-.02-261.43-204.12c-.63-.52-1.26-1.04-1.81-1.6-3.7-3.34-6.64-7.48-8.54-12.14l-52.77-130.5,52.7,7.35,37.25,92.15c1.9,4.66,4.84,8.8,8.54,12.14.56.56,1.18,1.08,1.81,1.6l261.43,204.12.06.02q.06.02.11.04l38.36,30,.44.33c5.78,4.16,13.73,3.31,22.68-1.05Z"/>
    </g>
    <g class="uuid-14c08245-294d-495f-a88f-6b632d6e7304">
      <path class="uuid-43589a43-b913-45b0-a7ec-163a1427e52e" d="m1543.36,1924.53c16.92-25.56,26.24-52.06,14.45-62.26-.19-.19-.31-.35-.52-.48l-.11-.04-38.48-30.03-.06-.02-261.43-204.12c-.54-.43-1.09-.8-1.65-1.17-4.26-2.97-9.08-4.84-14.16-5.55l-98.71-13.81-15.15-37.43,139.47,19.5c5.08.71,9.9,2.58,14.16,5.55.56.37,1.11.74,1.65,1.17l261.43,204.12.06.02,38.48,30.03.11.04c.2.13.33.3.52.48,16.98,14.66-9.79,63.14-40.05,93.99Z"/>
    </g>
    <path class="uuid-20581a1c-8c36-4e6b-ba8c-80399f6df6f6" d="m1583.63,2015.97c-19.67,0-38.67-6.5-54.44-18.8l-347.75-271.48c-1.15-.94-2.07-1.72-2.88-2.51-5.26-4.82-9.45-10.82-12.13-17.37l-52.8-130.55c-2.01-4.97-1.22-10.63,2.08-14.85,3.3-4.23,8.6-6.37,13.9-5.63l139.48,19.5c7.52,1.05,14.47,3.78,20.67,8.11.65.43,1.55,1.05,2.43,1.76l347.61,271.36c38.52,30.15,45.39,86,15.33,124.52l-1.4,1.8c-14.59,18.7-35.58,30.58-59.1,33.48-3.68.45-7.35.67-11,.67Zm-432.44-427.89l43.04,106.43c1.01,2.47,2.64,4.78,4.69,6.64.19.17.37.34.55.52.21.2.47.4.73.62l347.45,271.24c12.37,9.65,27.78,13.92,43.32,12,15.56-1.91,29.45-9.78,39.09-22.14l1.4-1.8s0,0,.01-.01c19.9-25.5,15.34-62.48-10.15-82.43l-348.47-271.98c-2.55-1.78-5.13-2.79-7.92-3.18l-113.75-15.9Z"/>
    <path class="uuid-20581a1c-8c36-4e6b-ba8c-80399f6df6f6" d="m1152.76,1631.89l-25.18-62.29,66.53,9.32c-10.05,18.7-25.65,38.68-41.35,52.97Z"/>
    <path class="uuid-20581a1c-8c36-4e6b-ba8c-80399f6df6f6" d="m1499.88,1962.62c-7.11,0-12.42-2.5-16.23-5.47-1.43-1.12-2.58-2.56-3.34-4.2-2.67-5.74-.19-12.58,5.55-15.25,4.16-1.93,8.87-1.17,12.17,1.58,1.47.8,4.56.39,8.41-1.16,26.38-10.67,66.6-62.18,70.55-90.36.6-4.26.21-7.44-1.04-8.57-3.37-2.56-5.2-6.88-4.34-11.3,1.2-6.21,7.17-10.29,13.39-9.08h.08c1.77.36,3.44,1.12,4.87,2.23,23.1,18.03,3.88,59.62-21.81,92.52-12.82,16.42-27.01,30.17-39.97,38.74-11.56,7.64-20.88,10.34-28.26,10.34Z"/>
    <path class="uuid-20581a1c-8c36-4e6b-ba8c-80399f6df6f6" d="m1461.38,1932.51c-7.33,0-12.66-2.63-16.26-5.44-1.34-1.05-2.43-2.38-3.2-3.91-2.83-5.66-.55-12.57,5.1-15.4,4.21-2.09,9.07-1.39,12.46,1.43,1.48.81,4.57.4,8.41-1.16,26.38-10.67,66.6-62.18,70.55-90.36.59-4.19.19-7.45-1.05-8.57-3.37-2.56-5.2-6.88-4.34-11.3,1.2-6.21,7.17-10.27,13.39-9.08h.08c1.77.36,3.44,1.12,4.87,2.23,5.73,4.47,12.07,13.29,9.74,29.9-5.05,36.01-50.93,94.78-84.65,108.41-5.77,2.33-10.78,3.25-15.1,3.25Z"/>
    <path class="uuid-20581a1c-8c36-4e6b-ba8c-80399f6df6f6" d="m1196.68,1725.84c-7.33,0-12.66-2.63-16.26-5.44-1.34-1.05-2.43-2.38-3.2-3.91-2.83-5.66-.55-12.57,5.1-15.4,4.21-2.1,9.07-1.39,12.46,1.43,1.48.81,4.57.4,8.41-1.16,26.38-10.67,66.6-62.18,70.55-90.36.59-4.2.19-7.46-1.05-8.57-3.56-2.71-5.37-7.38-4.18-11.98,1.58-6.12,7.81-9.83,13.91-8.24l.08.02c1.52.39,2.95,1.09,4.19,2.06,5.73,4.47,12.07,13.29,9.74,29.9-5.05,36.01-50.93,94.78-84.65,108.41-5.77,2.33-10.78,3.25-15.1,3.25Z"/>
  </g>
  <g>
    <path class="uuid-87d332c1-b33e-46d6-b8ca-02d34ef3a154" d="m2906.79,1651.88l-488.09,846.41c-15.72,27.25-50.56,36.61-77.82,20.89l-605.77-349.32c-27.25-15.72-36.61-50.56-20.89-77.82l488.09-846.41c15.7-27.22,50.54-36.58,77.8-20.86l605.77,349.32c27.25,15.72,36.61,50.56,20.91,77.78Z"/>
    <path class="uuid-d920cf70-5d8f-4b30-8b18-6a669628aa7b" d="m2235.53,2681.13l-587.8-338.96c-77.58-44.74-104.2-143.89-59.47-221.47l553.3-959.5c44.74-77.58,143.89-104.2,221.47-59.47l587.8,338.96c77.58,44.74,104.2,143.89,59.47,221.47l-553.3,959.5c-44.74,77.58-143.89,104.2-221.47,59.47Z"/>
    <g class="uuid-397c64ed-511b-4378-a0c9-42d94b7dda67">
      <path class="uuid-20581a1c-8c36-4e6b-ba8c-80399f6df6f6" d="m2436.87,2649.31c-50.09,55.65-133.85,70.73-201.33,31.82l-587.81-338.96c-77.59-44.74-104.18-143.89-59.44-221.48l553.28-959.47c14.34-24.86,34.27-44.48,57.32-58.21l.02-.03h.05s22.14-8.98,22.14-8.98l.02-.03,18.8-7.61,70.96,11.16c-51.25-4.15-95.65,19.59-134.04,67.71l-526.36,912.78c-44.74,77.59-18.15,176.74,59.44,221.48l587.81,338.96c44.07,25.41,95.13,27.79,139.13,10.87Z"/>
    </g>
    <g class="uuid-397c64ed-511b-4378-a0c9-42d94b7dda67">
      <path class="uuid-049c75fd-dda6-4fc8-9830-10bcbc9471bd" d="m2223.9,1090.85c-.95,1.02-1.87,2.07-2.78,3.11l-.02.03-22.14,8.96c7.97-4.79,16.31-8.82,24.94-12.11Z"/>
    </g>
    <path class="uuid-43589a43-b913-45b0-a7ec-163a1427e52e" d="m3010.29,1662.17l-553.28,959.47c-20.63,35.78-52.85,60.74-89.22,72.81,15.88-11.58,29.67-26.62,40.14-44.77l569.68-987.9c40.21-69.74,16.28-158.87-53.45-199.08l-616.21-355.34c-23.89-13.77-50.01-20-75.69-19.45,42.05-13.6,89.48-9.99,130.79,13.83l587.81,338.96c77.59,44.74,104.18,143.89,59.44,221.48Z"/>
    <path class="uuid-20581a1c-8c36-4e6b-ba8c-80399f6df6f6" d="m2316.25,2717.89c-30.67,0-60.93-8.03-88.21-23.76l-587.8-338.96c-40.99-23.64-70.32-61.82-82.6-107.52-12.27-45.7-6.01-93.44,17.63-134.43l553.3-959.5c23.64-40.99,61.82-70.32,107.52-82.59,45.7-12.28,93.44-6.02,134.43,17.63l587.8,338.96c40.99,23.64,70.32,61.82,82.6,107.52,12.27,45.7,6.01,93.44-17.63,134.43l-553.3,959.5c-23.64,40.99-61.82,70.32-107.52,82.59-15.29,4.11-30.81,6.14-46.23,6.14Zm-33.97-1622.9c-12.81,0-25.7,1.68-38.4,5.1-37.96,10.19-69.68,34.56-89.32,68.61l-553.3,959.5c-19.63,34.05-24.83,73.71-14.64,111.67,10.19,37.96,34.56,69.68,68.61,89.32l587.8,338.96c34.05,19.63,73.71,24.84,111.67,14.64,37.96-10.19,69.68-34.56,89.31-68.61l553.31-959.5c40.53-70.29,16.32-160.45-53.96-200.98l-587.8-338.96c-22.66-13.06-47.8-19.74-73.27-19.74Z"/>
    <g class="uuid-397c64ed-511b-4378-a0c9-42d94b7dda67">
      <path class="uuid-20581a1c-8c36-4e6b-ba8c-80399f6df6f6" d="m2933.37,1660.24l-468.21,811.95c-12.16,21.09-32.81,34.23-55.15,37.56,3.28-3.36,6.21-7.19,8.66-11.44l488.09-846.41c15.72-27.25,6.36-62.1-20.86-77.8l-605.8-349.34c-3.4-1.96-6.9-3.53-10.45-4.68,20.46-7.37,43.89-5.98,64.24,5.76l571.3,329.45c36.76,21.2,49.38,68.2,28.18,104.96Z"/>
    </g>
    <rect class="uuid-636e3a12-6ec8-4771-943d-38350f764834" x="1903.9" y="1326.49" width="813.2" height="1090.97" rx="56.96" ry="56.96" transform="translate(1244.09 -903.9) rotate(29.97)"/>
    <g class="uuid-59a5f9e5-2980-4b57-9504-75dedaa592ae">
      <path class="uuid-43589a43-b913-45b0-a7ec-163a1427e52e" d="m2561.68,1965.79l-445.65-256.99c-17.24-9.94-23.15-31.97-13.21-49.21l80.56-139.71c9.94-17.24,31.97-23.15,49.21-13.21l445.65,256.99c17.24,9.94,23.15,31.97,13.21,49.21l-80.56,139.71c-9.94,17.24-31.97,23.15-49.21,13.21Z"/>
    </g>
    <path class="uuid-20581a1c-8c36-4e6b-ba8c-80399f6df6f6" d="m2429.13,1693.01c-25.54-14.73-58.2-5.95-72.95,19.62-14.73,25.54-5.95,58.2,19.58,72.93,25.57,14.75,58.24,5.97,72.96-19.56,14.75-25.57,5.97-58.24-19.6-72.98Zm-10.91,60.02l-34.53.02c-3.54-.02-5.8-3.88-4.01-6.98l17.23-29.88c1.79-3.1,6.26-3.08,8.03,0l17.28,29.9c1.79,3.05-.45,6.93-4,6.94Z"/>
    <g class="uuid-59a5f9e5-2980-4b57-9504-75dedaa592ae">
      <path class="uuid-43589a43-b913-45b0-a7ec-163a1427e52e" d="m2338.46,1938.21l-289.19-166.76c-4.54-2.62-6.1-8.42-3.48-12.96l12.64-21.92c2.62-4.54,8.42-6.1,12.96-3.48l289.19,166.76c4.54,2.62,6.1,8.42,3.48,12.96l-12.64,21.92c-2.62,4.54-8.42,6.1-12.96,3.48Z"/>
    </g>
    <g class="uuid-bbf42632-1171-41db-8fb5-7e9b31a626f7">
      <polygon class="uuid-68982d3c-80a9-4866-96bb-cd2e40adc127" points="2756.01 1499.21 1865.22 1901.91 1847.05 1861.72 2055.62 1500.03 2449 1322.17 2756.01 1499.21"/>
    </g>
    <g class="uuid-2ffb96f6-c6d4-4072-8551-53eac507162b">
      <path class="uuid-372cbb02-677c-4059-8bdf-203c0d64f3e4" d="m2906.79,1651.88l-29.82,51.71-1093.3,494.27-48.55-27.99c-27.25-15.72-36.61-50.56-20.89-77.82l24.87-43.12,1104.37-499.29,42.41,24.46c27.25,15.72,36.61,50.56,20.91,77.78Z"/>
    </g>
    <g class="uuid-5ab73530-05e1-40fa-844e-527774fd2ba2">
      <polygon class="uuid-7a41cfb8-fba6-433a-ac5e-fb22a1e03345" points="2656.46 2086 2524.56 2314.72 2222.88 2451.13 2058.47 2356.33 2656.46 2086"/>
    </g>
    <path class="uuid-20581a1c-8c36-4e6b-ba8c-80399f6df6f6" d="m2369.23,2539.29c-11.77,0-23.68-2.99-34.58-9.27h0l-605.78-349.33c-16.07-9.27-27.57-24.24-32.39-42.16-4.81-17.92-2.36-36.64,6.91-52.71l488.09-846.41c9.27-16.07,24.24-27.57,42.16-32.38,17.92-4.82,36.64-2.36,52.71,6.91l605.78,349.33c16.07,9.27,27.57,24.24,32.39,42.16,4.81,17.92,2.36,36.64-6.91,52.71l-488.09,846.41c-12.84,22.28-36.25,34.75-60.29,34.75Zm-22.09-30.93c21.24,12.25,48.48,4.93,60.73-16.3l488.09-846.41c5.93-10.29,7.5-22.27,4.42-33.74-3.08-11.47-10.44-21.05-20.73-26.98l-605.78-349.33c-10.29-5.94-22.27-7.51-33.74-4.43-11.47,3.08-21.05,10.44-26.99,20.73l-488.09,846.41c-5.93,10.29-7.5,22.27-4.42,33.74,3.08,11.47,10.44,21.05,20.73,26.98l605.78,349.33Z"/>
    <circle class="uuid-20581a1c-8c36-4e6b-ba8c-80399f6df6f6" cx="1987.16" cy="2432.7" r="32.55" transform="translate(-1097.76 3024.38) rotate(-61.61)"/>
    <path class="uuid-20581a1c-8c36-4e6b-ba8c-80399f6df6f6" d="m2707.75,1402.64c-1.95,0-3.91-.49-5.72-1.54l-180.11-103.86c-5.49-3.16-7.37-10.18-4.21-15.66,3.17-5.49,10.18-7.37,15.66-4.2l180.11,103.86c5.49,3.16,7.37,10.18,4.21,15.66-2.12,3.68-5.98,5.74-9.94,5.74Z"/>
    <g class="uuid-397c64ed-511b-4378-a0c9-42d94b7dda67">
      <path class="uuid-049c75fd-dda6-4fc8-9830-10bcbc9471bd" d="m2333.56,1101.07l-22.42-3.55c7.32.63,14.81,1.8,22.42,3.55Z"/>
    </g>
    <g class="uuid-397c64ed-511b-4378-a0c9-42d94b7dda67">
      <path class="uuid-43589a43-b913-45b0-a7ec-163a1427e52e" d="m1991.92,1830.51c4.64-35.88,55.58-58.87,113.78-51.34,58.2,7.52,101.62,42.71,96.98,78.59-4.64,35.88-51.45,26.92-109.65,19.4-58.2-7.52-105.75-10.76-101.11-46.64Z"/>
    </g>
    <g class="uuid-397c64ed-511b-4378-a0c9-42d94b7dda67">
      <path class="uuid-20581a1c-8c36-4e6b-ba8c-80399f6df6f6" d="m2885.89,1574.1l-605.78-349.33c-22.21-12.81-49.46-8.95-67.29,7.67,5.83,1.2,11.58,3.29,17.03,6.43l605.78,349.33c27.25,15.71,36.6,50.55,20.89,77.8l-488.09,846.41c-2.9,5.04-6.47,9.45-10.51,13.22,23.38,4.79,48.2-5.51,60.77-27.32l488.09-846.41c15.71-27.25,6.36-62.08-20.89-77.8Z"/>
    </g>
  </g>
  <g>
    <path class="uuid-20581a1c-8c36-4e6b-ba8c-80399f6df6f6" d="m1659.15,1487.21c-7.44,0-14.48-4.41-17.49-11.72l-59.31-144.22c-4.29-10.44-16.28-15.44-26.72-11.15l-46.94,19.3c-9.65,3.97-20.7-.63-24.67-10.29-3.97-9.65.64-20.7,10.29-24.67l46.94-19.3c29.71-12.23,63.84,2.01,76.06,31.73l59.31,144.22c3.97,9.65-.64,20.7-10.29,24.67-2.35.97-4.79,1.43-7.18,1.43Z"/>
    <path class="uuid-636e3a12-6ec8-4771-943d-38350f764834" d="m1478.02,1264.82l-110.35,45.38-22.69-55.17c-12.53-30.47,2.01-65.33,32.48-77.86h0c30.47-12.53,65.33,2.01,77.86,32.48l22.69,55.17Z"/>
    <g class="uuid-14c08245-294d-495f-a88f-6b632d6e7304">
      <path class="uuid-43589a43-b913-45b0-a7ec-163a1427e52e" d="m1410.77,1173.65c-25.49,14.65-36.85,46.35-25.31,74.32l19.34,46.97-37.14,15.27-22.7-55.21c-12.5-30.46,2.01-65.3,32.49-77.85,10.98-4.55,22.5-5.52,33.32-3.5Z"/>
    </g>
    <path class="uuid-20581a1c-8c36-4e6b-ba8c-80399f6df6f6" d="m1367.67,1329.34c-2.5,0-5.01-.49-7.37-1.47-4.68-1.95-8.4-5.69-10.33-10.38l-22.69-55.18c-16.52-40.18,2.72-86.32,42.91-102.85,40.18-16.52,86.32,2.73,102.84,42.91l22.69,55.18c4.02,9.78-.65,20.96-10.42,24.98l-110.35,45.38c-2.33.96-4.8,1.44-7.28,1.44Zm32.43-137.52c-5.13,0-10.33.98-15.36,3.05-20.66,8.5-30.56,32.22-22.06,52.89l15.41,37.48,74.95-30.82-15.41-37.48c-6.43-15.64-21.58-25.11-37.53-25.11Z"/>
    <path class="uuid-1b6cc7b0-86f4-407e-9a42-f3fde36e2f6f" d="m1501.37,1279.28l268.38,654.61c.44,1.08.81,2.19,1.13,3.28l.11.22c1.26,4.38,1.58,8.94.97,13.55l-19.12,139.89-111.53-86.49c-3.56-2.67-6.54-6.15-8.68-10.08-.67-1.15-1.26-2.34-1.76-3.62l-268.29-654.33c-21.17-51.48,117.65-108.58,138.8-57.05Z"/>
    <path class="uuid-5c7eb058-5a68-4d31-9c06-87d464660506" d="m1770.87,1937.18l.11.22c1.26,4.38,1.58,8.94.97,13.55l-19.12,139.89-111.53-86.49c-3.56-2.67-6.54-6.15-8.68-10.08-15.93-38.85,121.77-95.58,138.26-57.1Z"/>
    <g class="uuid-397c64ed-511b-4378-a0c9-42d94b7dda67">
      <path class="uuid-20581a1c-8c36-4e6b-ba8c-80399f6df6f6" d="m1501.37,1279.28l268.38,654.61c.44,1.08.81,2.19,1.13,3.28l.11.22c1.26,4.38,1.58,8.94.97,13.55l-19.12,139.89-42.16-32.72,13.85-101.41c.62-4.62.29-9.18-.97-13.56l-.11-.22c-.31-1.09-.68-2.21-1.13-3.28l-268.38-654.61c-4.66-11.39-15.05-17.47-28.18-19.45,32.15-10.7,66.02-9.75,75.62,13.69Z"/>
    </g>
    <g class="uuid-14c08245-294d-495f-a88f-6b632d6e7304">
      <path class="uuid-43589a43-b913-45b0-a7ec-163a1427e52e" d="m1399.15,1277.47c-5.93,9.58-7.87,19.81-3.73,29.79l268.23,654.31c2.26,5.45,5.87,10.19,10.44,13.7l85.49,66.21-6.75,49.37-111.53-86.49c-4.65-3.47-8.24-8.26-10.44-13.7l-268.29-654.33c-8.8-21.37,10.01-43.77,36.58-58.86Z"/>
    </g>
    <path class="uuid-20581a1c-8c36-4e6b-ba8c-80399f6df6f6" d="m1752.86,2109.97c-4.18,0-8.31-1.37-11.72-4.01l-111.58-86.45c-7.16-5.46-12.88-12.94-16.41-21.54l-268.28-654.36c-13.63-33.15,12.66-71.04,63.94-92.13,51.28-21.07,96.63-12.66,110.27,20.51,0,0,0,.01,0,.02l268.38,654.6c3.48,8.45,4.68,17.74,3.49,26.84l-19.13,139.98c-.93,6.77-5.4,12.54-11.72,15.12-2.33.96-4.79,1.42-7.24,1.42Zm-290.23-831.83c-11.05,0-25.1,2.92-39.26,8.74-28.02,11.52-47.76,30.85-43.09,42.19l268.28,654.36c.95,2.31,2.45,4.31,4.34,5.74l85.49,66.24,14.63-107.05c.32-2.42,0-4.87-.96-7.2l-268.38-654.62c-2.32-5.6-10.24-8.39-21.04-8.39Z"/>
    <path class="uuid-20581a1c-8c36-4e6b-ba8c-80399f6df6f6" d="m1761.97,2024.06l-9.09,66.73-53.25-41.23c18.05-11.27,41.57-20.89,62.35-25.5Z"/>
    <path class="uuid-20581a1c-8c36-4e6b-ba8c-80399f6df6f6" d="m1632.61,2008.45c-5.58,0-10.86-3.31-13.12-8.79-12.83-31.21,26.94-60.51,64.9-76.12,37.96-15.61,86.85-22.77,99.68,8.44,2.98,7.24-.48,15.52-7.72,18.5-7.25,2.99-15.52-.47-18.5-7.72-2.24-5.44-26.4-7.92-62.68,7-36.28,14.92-51.7,33.67-49.46,39.12,2.98,7.24-.48,15.52-7.72,18.5-1.76.73-3.59,1.07-5.39,1.07Z"/>
    <path class="uuid-20581a1c-8c36-4e6b-ba8c-80399f6df6f6" d="m1399.14,1440.72c-5.58,0-10.86-3.31-13.12-8.79-12.83-31.21,26.94-60.51,64.9-76.12,37.96-15.62,86.85-22.77,99.68,8.44,2.98,7.24-.48,15.52-7.72,18.5-7.24,2.99-15.52-.47-18.5-7.72-2.24-5.44-26.39-7.92-62.67,7-36.28,14.92-51.71,33.67-49.47,39.12,2.98,7.24-.48,15.52-7.72,18.5-1.76.73-3.59,1.07-5.39,1.07Z"/>
    <path class="uuid-20581a1c-8c36-4e6b-ba8c-80399f6df6f6" d="m1644.41,1457l2.41-.99-27.18-66.1-2.41.99c-18.25,7.51-26.97,28.39-19.46,46.64h0c7.51,18.25,28.39,26.97,46.64,19.46Z"/>
  </g>
  <g>
    <path class="uuid-2d6c6eec-3bea-4078-bc18-c5cd495694d2" d="m1527.27,3054.57l-235.05,65.55-251.5,70.15c-27.15,7.6-55.3-8.3-62.9-35.45l-197.25-707.25c-7.6-27.15,8.3-55.3,35.45-62.9l474.1-132.25,12.45-3.45c36.25-10.15,73.9,11.1,84,47.35l188.1,674.25c10.1,36.25-11.1,73.85-47.4,84Z"/>
    <g class="uuid-397c64ed-511b-4378-a0c9-42d94b7dda67">
      <path class="uuid-20581a1c-8c36-4e6b-ba8c-80399f6df6f6" d="m1527.27,3054.57l-235.05,65.55-251.5,70.15c-27.15,7.6-55.3-8.3-62.9-35.45l-197.25-707.25c-6.1-21.75,2.9-44.1,20.65-56.05l136.1,487.8c25.97,93.02,104.42,157.28,194.4,169.61,31.05,4.25,57.66-20.59,57.31-51.93,0-.21,0-.42,0-.63v-395.2c0-29.99,24.31-54.3,54.3-54.3h46.8v-294.45l12.45-3.45c36.25-10.15,73.9,11.1,84,47.35l179.25,642.5,8.85,31.75c10.1,36.25-11.1,73.85-47.4,84Z"/>
    </g>
    <g class="uuid-d6be69b5-ab6a-4613-b666-6b0ba4585c65">
      <path class="uuid-43589a43-b913-45b0-a7ec-163a1427e52e" d="m1394.12,2323.37c-15.4-25.65-46.55-38.95-76.8-30.55l-486.55,135.75c-27.15,7.55-43,35.7-35.45,62.9l189.05,677.7c-2.85-4.3-5.1-9.1-6.55-14.35l-197.25-707.25c-7.6-27.15,8.3-55.3,35.45-62.9l486.55-135.7c36.25-10.15,73.9,11.1,84,47.35l7.55,27.05Z"/>
    </g>
    <path class="uuid-20581a1c-8c36-4e6b-ba8c-80399f6df6f6" d="m1027.04,3208.72c-29.59,0-56.83-19.59-65.16-49.45l-197.28-707.23c-4.85-17.4-2.64-35.64,6.23-51.38,8.87-15.73,23.34-27.07,40.73-31.92l486.55-135.72c21.8-6.08,44.67-3.31,64.39,7.81,19.72,11.12,33.93,29.25,40.01,51.05l188.08,674.23c6.08,21.8,3.31,44.67-7.81,64.39-11.12,19.72-29.25,33.93-51.05,40.01l-486.55,135.72c-6.05,1.69-12.15,2.49-18.14,2.49Zm293.92-945.73c-4.66,0-9.34.63-13.95,1.92l-486.55,135.72c-8.88,2.48-16.26,8.26-20.79,16.29-4.53,8.03-5.66,17.34-3.18,26.22l197.28,707.23c5.11,18.33,24.17,29.06,42.51,23.96l486.55-135.72h0c13.28-3.71,24.33-12.36,31.1-24.38,6.77-12.02,8.46-25.95,4.76-39.23l-188.08-674.23c-3.71-13.29-12.36-24.33-24.38-31.1-7.85-4.42-16.51-6.67-25.28-6.67Z"/>
    <path class="uuid-20581a1c-8c36-4e6b-ba8c-80399f6df6f6" d="m1316.81,2559.49l-346.88,96.76c-14.28,3.98-29.09-4.36-33.07-18.65l-27.09-97.13c-3.98-14.28,4.36-29.09,18.65-33.07l346.88-96.76c14.28-3.98,29.09,4.36,33.07,18.64l27.09,97.13c3.98,14.28-4.36,29.09-18.65,33.07Z"/>
    <g>
      <path class="uuid-43589a43-b913-45b0-a7ec-163a1427e52e" d="m1021.38,2582.34l-15.17-54.38,14.37-4.01,16.86,16.78c4.82,4.83,9.94,10.7,14.07,16.16l.24-.07c-2.81-6.96-5.1-14.23-7.37-22.38l-4.43-15.89,11.29-3.15,15.17,54.38-12.91,3.6-17.47-17.74c-4.85-4.91-10.36-10.94-14.8-16.57l-.22.15c2.33,7.09,4.63,14.72,7.1,23.58l4.57,16.39-11.3,3.15Z"/>
      <path class="uuid-43589a43-b913-45b0-a7ec-163a1427e52e" d="m1109.77,2535.95c4.03,14.44-4.38,23.92-14.94,26.87-11.54,3.22-22.53-1.89-26.09-14.64-3.55-12.74,2.56-23.24,15.23-26.77,12.1-3.37,22.49,2.69,25.8,14.55Zm-28.45,8.37c1.89,6.78,6.13,11.07,11.38,9.61,4.76-1.33,6.49-6.95,4.51-14.04-1.64-5.89-5.57-11.24-11.13-9.68-5.89,1.64-6.38,8.3-4.76,14.12Z"/>
      <path class="uuid-43589a43-b913-45b0-a7ec-163a1427e52e" d="m1122.55,2499.42l3.15,11.3,8.79-2.45,2.52,9.03-8.79,2.45,3.98,14.29c1.33,4.76,3.07,6.62,6.78,5.59,1.53-.43,2.7-.93,3.54-1.33l2.67,9.25c-1.44,1.09-4.23,2.31-7.7,3.28-3.95,1.1-7.64.65-10.14-.83-2.91-1.71-5.1-5.19-6.65-10.76l-4.5-16.14-5.25,1.46-2.52-9.03,5.25-1.46-2.39-8.56,11.25-6.09Z"/>
      <path class="uuid-43589a43-b913-45b0-a7ec-163a1427e52e" d="m1157.23,2527.4c1.82,4.97,7.5,6,13.23,4.4,4.19-1.17,7.43-2.68,10.44-4.65l3.93,7.86c-3.58,2.74-8.29,4.92-13.61,6.41-13.39,3.74-23.22-1.88-26.66-14.22-2.79-10.01.34-22.79,14.06-26.62,12.75-3.56,20.36,5.01,23.08,14.78.59,2.09.86,4.02.95,4.95l-25.41,7.09Zm12.1-12.42c-.83-2.98-3.52-7.63-9.17-6.05-5.17,1.44-5.96,6.7-5.36,10.1l14.53-4.05Z"/>
      <path class="uuid-43589a43-b913-45b0-a7ec-163a1427e52e" d="m1191.75,2523.25c2.64.74,7.77,1.05,11.4.04,3.71-1.04,4.88-2.75,4.32-4.77-.56-2.02-2.05-2.65-7.07-2.9-8.92-.47-13.3-4.03-14.53-8.74-2.05-7.34,2.69-14.66,12.46-17.39,4.6-1.28,9.01-1.39,11.76-.85l.19,9.09c-2.05-.48-5.8-.83-9.18.12-2.99.83-4.34,2.52-3.78,4.54.52,1.86,2.32,2.4,7.63,2.74,8.22.49,12.43,3.41,14.14,9.19,2.05,7.34-2.26,14.38-13.55,17.52-5.16,1.44-10.08,1.59-13.51.81l-.27-9.4Z"/>
    </g>
  </g>
  <path class="uuid-f43908de-f7ef-44c9-b5ff-165c8d89fc06" d="m2056.64,1423.01h0c392.73,0,711.58,318.85,711.58,711.58v929.72c0,73.62-59.77,133.38-133.38,133.38h-1156.39c-73.62,0-133.38-59.77-133.38-133.38v-929.72c0-392.73,318.85-711.58,711.58-711.58Z"/>
  <g class="uuid-d6be69b5-ab6a-4613-b666-6b0ba4585c65">
    <path class="uuid-43589a43-b913-45b0-a7ec-163a1427e52e" d="m2758.22,2134.57v929.75c0,49.1-26.55,92-66.05,115.1,11.6-19.75,18.25-42.75,18.25-67.3v-929.75c0-111.3-25.55-216.6-71.1-310.4-92.45,39.2-202.25-115.15-134-189.35-1.05-1.15-2.2-2.3-3.3-3.4-128.75-128.75-306.65-208.4-503.15-208.4-184.2,0-352.1,70-478.5,184.85,130.1-142.9,317.7-232.65,526.25-232.65,196.5,0,374.4,79.65,503.15,208.4,128.8,128.8,208.45,306.7,208.45,503.15Z"/>
  </g>
  <path class="uuid-20581a1c-8c36-4e6b-ba8c-80399f6df6f6" d="m2634.83,3216.02h-1156.39c-83.66,0-151.72-68.06-151.72-151.71v-929.72c0-402.48,327.44-729.91,729.91-729.91s729.91,327.44,729.91,729.91v929.72c0,83.65-68.06,151.71-151.71,151.71Zm-578.2-1774.67c-382.26,0-693.25,310.99-693.25,693.24v929.72c0,63.44,51.61,115.04,115.05,115.04h1156.39c63.44,0,115.05-51.61,115.05-115.04v-929.72c0-382.26-310.99-693.24-693.24-693.24Z"/>
  <path class="uuid-20581a1c-8c36-4e6b-ba8c-80399f6df6f6" d="m1448.53,2152.82c-5.79,0-10.48-4.69-10.48-10.48,0-342.08,274.76-623.04,612.48-626.31,2.05-.02,4.12-.03,6.16-.03,163.88,0,318.13,63.51,435,179.24,118.35,117.21,183.53,273.24,183.53,439.35,0,5.79-4.69,10.48-10.48,10.48s-10.48-4.69-10.48-10.48c0-160.47-62.97-311.22-177.32-424.46-114.32-113.21-265.91-174.65-426.21-173.15-326.28,3.17-591.73,274.73-591.73,605.36,0,5.79-4.69,10.48-10.48,10.48Z"/>
  <rect class="uuid-cbb6d149-0d62-4a98-af28-84062b2471ac" x="1542.53" y="2514.38" width="1028.21" height="503.76" rx="132.84" ry="132.84"/>
  <g class="uuid-397c64ed-511b-4378-a0c9-42d94b7dda67">
    <path class="uuid-20581a1c-8c36-4e6b-ba8c-80399f6df6f6" d="m2563.82,2927.62c-17.6,52.6-67.35,90.5-125.9,90.5h-762.55c-73.35,0-132.85-59.45-132.85-132.8v-238.1c0-58.2,37.45-107.7,89.6-125.65-4.5,13.3-6.95,27.6-6.95,42.4v238.05c0,73.4,59.5,132.85,132.85,132.85h762.55c15.15,0,29.7-2.55,43.25-7.25Z"/>
  </g>
  <g class="uuid-d6be69b5-ab6a-4613-b666-6b0ba4585c65">
    <path class="uuid-43589a43-b913-45b0-a7ec-163a1427e52e" d="m2570.77,2647.22v238.1c0,46.25-23.65,86.95-59.5,110.75,2.9-9.5,4.5-19.55,4.5-30v-301.5c0-55.85-45.3-101.1-101.15-101.1h-825.95c-6,0-11.95.55-17.65,1.55,24.3-30.85,62-50.65,104.35-50.65h762.55c73.35,0,132.85,59.5,132.85,132.85Z"/>
  </g>
  <path class="uuid-20581a1c-8c36-4e6b-ba8c-80399f6df6f6" d="m2437.9,3036.47h-762.53c-83.36,0-151.17-67.82-151.17-151.18v-238.08c0-83.35,67.82-151.17,151.17-151.17h762.53c83.36,0,151.17,67.82,151.17,151.17v238.08c0,83.36-67.82,151.18-151.17,151.18Zm-762.53-503.75c-63.14,0-114.51,51.36-114.51,114.5v238.08c0,63.14,51.37,114.51,114.51,114.51h762.53c63.14,0,114.51-51.37,114.51-114.51v-238.08c0-63.14-51.37-114.5-114.51-114.5h-762.53Z"/>
  <path class="uuid-20581a1c-8c36-4e6b-ba8c-80399f6df6f6" d="m2185.51,1906.77l-115.5-115.45c-7.39-7.44-19.38-7.44-26.77,0l-115.5,115.45c-7.39,7.44-7.39,19.43,0,26.82l115.5,115.45c7.39,7.44,19.38,7.44,26.77,0l115.5-115.45c7.39-7.39,7.39-19.38,0-26.82Zm-152.32,64.74c0,7.12-5.81,12.94-12.94,12.94s-12.94-5.81-12.94-12.94v-95.23c0-7.18,5.81-12.94,12.94-12.94s12.94,5.76,12.94,12.94v95.23Zm72.76,0c0,7.12-5.81,12.94-12.94,12.94s-12.94-5.81-12.94-12.94v-95.23c0-7.18,5.81-12.94,12.94-12.94s12.94,5.76,12.94,12.94v95.23Z"/>
  <path class="uuid-20581a1c-8c36-4e6b-ba8c-80399f6df6f6" d="m2451.11,2644.17h-798.65c-5.79,0-10.48-4.69-10.48-10.48s4.69-10.48,10.48-10.48h798.65c5.79,0,10.48,4.69,10.48,10.48s-4.69,10.48-10.48,10.48Z"/>
  <rect class="uuid-20581a1c-8c36-4e6b-ba8c-80399f6df6f6" x="2316.38" y="2607.82" width="107.78" height="52.81" rx="20.48" ry="20.48"/>
  <rect class="uuid-20581a1c-8c36-4e6b-ba8c-80399f6df6f6" x="2356.13" y="2645.81" width="28.29" height="37.18" rx="5.25" ry="5.25"/>
  <path class="uuid-20581a1c-8c36-4e6b-ba8c-80399f6df6f6" d="m2396.53,2674.95h-52.51c-2.91,0-5.3,2.33-5.3,5.24v80.83c0,2.91,2.39,5.24,5.3,5.24h52.51c2.91,0,5.3-2.33,5.3-5.24v-80.83c0-2.91-2.39-5.24-5.3-5.24Zm-4.72,77.02c0,1.81-1.42,3.23-3.23,3.23h-35.57c-1.75,0-3.23-1.42-3.23-3.23v-15.33c0-1.81,1.49-3.23,3.23-3.23h35.57c1.81,0,3.23,1.42,3.23,3.23v15.33Z"/>
  <path class="uuid-cbb6d149-0d62-4a98-af28-84062b2471ac" d="m1345.06,2514.38h-46.81c-29.97,0-54.27,24.3-54.27,54.27v395.22c0,29.97,24.3,54.27,54.27,54.27h46.81v-503.76Z"/>
  <path class="uuid-20581a1c-8c36-4e6b-ba8c-80399f6df6f6" d="m1345.06,3036.47h-46.81c-40.03,0-72.6-32.57-72.6-72.6v-395.22c0-40.03,32.57-72.6,72.6-72.6h46.81c10.12,0,18.33,8.21,18.33,18.33v503.75c0,10.13-8.21,18.33-18.33,18.33Zm-46.81-503.75c-19.81,0-35.93,16.12-35.93,35.93v395.22c0,19.81,16.12,35.93,35.93,35.93h28.48v-467.09h-28.48Z"/>
  <g class="uuid-397c64ed-511b-4378-a0c9-42d94b7dda67">
    <path class="uuid-20581a1c-8c36-4e6b-ba8c-80399f6df6f6" d="m1345.06,2514.38h-46.81c-29.97,0-54.27,24.3-54.27,54.27v395.22c0,29.97,24.3,54.27,54.27,54.27h46.81v-503.76Z"/>
  </g>
  <g class="uuid-397c64ed-511b-4378-a0c9-42d94b7dda67">
    <path class="uuid-20581a1c-8c36-4e6b-ba8c-80399f6df6f6" d="m2779.83,3090.95c-3.23,15.16-9.01,29.37-16.86,42.19-21.26,13.99-46.75,22.16-74.05,22.16h-1198.22c-59.05,0-106.97-47.86-106.97-106.97v-968.86c0-142.64,41.45-275.58,113.01-387.37-53.75,100.82-84.17,215.95-84.17,338.18v549.57c0,44.26,5.51,87.25,15.8,128.33,3.98,15.85,24.91,19.45,34.19,6.04l14.58-21.04,87.83-126.95c-8.91,13.41-15.53,28.46-19.19,44.68-2.12,9.54-3.29,19.51-3.29,29.74v240.92c0,21.57,5.09,41.93,14.15,60,15.74,31.59,43.62,56.13,77.55,67.42,0,0,.05.11.11.05,13.36,4.51,27.72,6.94,42.62,6.94h771.62c21.52,0,41.88-5.09,59.95-14.1,1.33-.64,2.65-1.33,3.92-2.01l-64.56,63.77-16.17,15.95c-9.86,9.7-2.97,26.45,10.87,26.45h275.21c22.37,0,43.52-5.46,62.07-15.11Z"/>
  </g>
  <path class="uuid-cbb6d149-0d62-4a98-af28-84062b2471ac" d="m2768.21,2514.38h46.81c29.97,0,54.27,24.3,54.27,54.27v395.22c0,29.97-24.3,54.27-54.27,54.27h-46.81v-503.76Z"/>
  <g class="uuid-d6be69b5-ab6a-4613-b666-6b0ba4585c65">
    <path class="uuid-43589a43-b913-45b0-a7ec-163a1427e52e" d="m2869.32,2568.67v395.2c0,25.7-17.9,47.25-42,52.85,2-5.6,3.05-11.6,3.05-17.85v-395.2c0-30-24.3-54.3-54.25-54.3h-7.9v-35h46.8c30,0,54.3,24.3,54.3,54.3Z"/>
  </g>
  <path class="uuid-65e866b5-a236-487a-9b36-13018f1aa987" d="m2768.21,2514.38h46.81c29.97,0,54.27,24.3,54.27,54.27v395.22c0,29.97-24.3,54.27-54.27,54.27h-46.81v-503.76Z"/>
  <path class="uuid-20581a1c-8c36-4e6b-ba8c-80399f6df6f6" d="m2815.02,3036.47h-46.81c-10.12,0-18.33-8.21-18.33-18.33v-503.75c0-10.13,8.21-18.33,18.33-18.33h46.81c40.03,0,72.6,32.57,72.6,72.6v395.22c0,40.03-32.57,72.6-72.6,72.6Zm-28.48-36.67h28.48c19.81,0,35.94-16.12,35.94-35.93v-395.22c0-19.81-16.12-35.93-35.94-35.93h-28.48v467.09Z"/>
  <g>
    <path class="uuid-1b6cc7b0-86f4-407e-9a42-f3fde36e2f6f" d="m3157.67,3147.56c.81,27.53-21.22,50.13-48.59,50.13h-752.83c-67.62,0-122.45-54.83-122.45-122.53v-120.02c0-67.62,54.83-122.53,122.45-122.53h750.8c26.64,0,49.8,20.57,50.61,47.13.81,27.53-21.22,50.05-48.59,50.05h-740.03c-20.98,0-38.06,17.09-38.06,38.14v94.43c0,21.06,17.09,38.14,38.06,38.14h738.01c26.64,0,49.8,20.49,50.61,47.05Z"/>
    <g class="uuid-d6be69b5-ab6a-4613-b666-6b0ba4585c65">
      <path class="uuid-43589a43-b913-45b0-a7ec-163a1427e52e" d="m3157.67,2879.77c.25,8.1-1.5,15.75-4.8,22.5-8.2-16.65-26.05-28-45.8-28h-750.8c-67.65,0-122.45,54.9-122.45,122.55v-41.7c0-67.6,54.8-122.5,122.45-122.5h750.8c26.65,0,49.8,20.55,50.6,47.15Z"/>
    </g>
    <g class="uuid-397c64ed-511b-4378-a0c9-42d94b7dda67">
      <path class="uuid-20581a1c-8c36-4e6b-ba8c-80399f6df6f6" d="m3157.67,3157.57c.8,27.55-21.2,50.1-48.6,50.1h-752.8c-67.65,0-122.45-54.8-122.45-122.5v-51.4c0,67.7,54.8,122.5,122.45,122.5h752.8c17.3,0,32.5-9.05,41.05-22.65,4.55,6.95,7.3,15.15,7.55,23.95Z"/>
    </g>
    <path class="uuid-20581a1c-8c36-4e6b-ba8c-80399f6df6f6" d="m3109.08,3216.02h-752.83c-77.63,0-140.78-63.19-140.78-140.86v-120.01c0-77.67,63.15-140.86,140.78-140.86h750.8c36.92,0,67.85,29.12,68.94,64.9.54,18.3-6.16,35.57-18.86,48.65-12.71,13.09-29.78,20.3-48.05,20.3h-740.03c-10.88,0-19.73,8.89-19.73,19.81v94.43c0,10.92,8.85,19.81,19.73,19.81h738.01c36.92,0,67.85,29.08,68.94,64.82v.02c.54,18.3-6.17,35.6-18.9,48.7-12.71,13.09-29.76,20.3-48.02,20.3Zm-752.83-365.07c-57.41,0-104.12,46.74-104.12,104.19v120.01c0,57.46,46.71,104.19,104.12,104.19h752.83c8.25,0,15.96-3.26,21.71-9.17,5.76-5.93,8.79-13.76,8.55-22.07-.5-16.14-14.98-29.27-32.29-29.27h-738.01c-31.1,0-56.4-25.34-56.4-56.48v-94.43c0-31.14,25.3-56.48,56.4-56.48h740.03c8.28,0,16-3.26,21.75-9.17,5.74-5.9,8.76-13.72,8.52-22-.49-16.16-14.98-29.33-32.29-29.33h-750.8Z"/>
    <path class="uuid-43589a43-b913-45b0-a7ec-163a1427e52e" d="m3088.18,3100.51h-719.14c-20.98,0-38.06-17.09-38.06-38.14v-94.43c0-21.06,17.09-38.14,38.06-38.14h719.14c-46.81,56.93-46.81,113.78,0,170.71Z"/>
    <g class="uuid-397c64ed-511b-4378-a0c9-42d94b7dda67">
      <path class="uuid-20581a1c-8c36-4e6b-ba8c-80399f6df6f6" d="m3057.62,2995.62h-688.55c-21,0-38.1,17.1-38.1,38.15v-54.8c0-21.05,17.1-38.15,38.1-38.15h719.1c-15,18.25-25.2,36.55-30.55,54.8Z"/>
    </g>
    <path class="uuid-20581a1c-8c36-4e6b-ba8c-80399f6df6f6" d="m3088.18,3118.84h-719.14c-31.1,0-56.4-25.34-56.4-56.48v-94.43c0-31.14,25.3-56.48,56.4-56.48h719.14c7.09,0,13.55,4.09,16.58,10.5,3.03,6.41,2.09,14-2.41,19.48-41.35,50.29-41.35,97.14,0,147.43,4.5,5.48,5.44,13.07,2.41,19.48-3.03,6.41-9.48,10.5-16.58,10.5Zm-719.14-170.72c-10.88,0-19.73,8.89-19.73,19.81v94.43c0,10.92,8.85,19.81,19.73,19.81h684.35c-24.67-44.29-24.67-89.76,0-134.05h-684.35Z"/>
    <path class="uuid-20581a1c-8c36-4e6b-ba8c-80399f6df6f6" d="m2426.14,3116.22c-8.68,0-15.72-7.04-15.72-15.71v-170.72c0-8.68,7.04-15.71,15.72-15.71s15.72,7.04,15.72,15.71v170.72c0,8.68-7.04,15.71-15.72,15.71Z"/>
  </g>
  <g class="uuid-397c64ed-511b-4378-a0c9-42d94b7dda67">
    <path class="uuid-43589a43-b913-45b0-a7ec-163a1427e52e" d="m1805.24,2866.11c-15.32,18.81-52.47,13.93-82.99-10.92-30.52-24.84-42.84-60.23-27.53-79.05,15.32-18.81,38.83,2.83,69.35,27.67,30.52,24.84,56.48,43.48,41.16,62.29Z"/>
  </g>
  <g class="uuid-397c64ed-511b-4378-a0c9-42d94b7dda67">
    <path class="uuid-43589a43-b913-45b0-a7ec-163a1427e52e" d="m1927.51,1650.92c-.89-39.43,50.23-72.56,114.18-74,63.95-1.44,116.52,29.35,117.41,68.77.89,39.43-51.02,37.45-114.98,38.9-63.95,1.44-115.72,5.76-116.61-33.67Z"/>
  </g>
  <g class="uuid-397c64ed-511b-4378-a0c9-42d94b7dda67">
    <path class="uuid-43589a43-b913-45b0-a7ec-163a1427e52e" d="m1811.51,1695.61c6.66,14.67,22.22,11.19,39.75,3.23,17.53-7.96,30.38-17.39,23.72-32.06-6.66-14.67-26.27-20.1-43.8-12.14-17.53,7.96-26.33,26.3-19.67,40.97Z"/>
  </g>
  <path class="uuid-3454b10f-fb12-445e-99e6-3aaa94eb2f51" d="m3443.46,2374.69c-3.32,0-6.49-1.32-8.84-3.66l-48.03-48.03c-2.35-2.34-3.66-5.52-3.66-8.84s1.32-6.49,3.66-8.84l48.03-48.03c4.88-4.88,12.79-4.88,17.68,0l48.03,48.03c2.34,2.34,3.66,5.52,3.66,8.84s-1.32,6.49-3.66,8.84l-48.03,48.03c-2.34,2.34-5.52,3.66-8.84,3.66Zm-30.35-60.53l30.35,30.36,30.35-30.36-30.35-30.35-30.35,30.35Z"/>
  <g>
    <path class="uuid-1b6cc7b0-86f4-407e-9a42-f3fde36e2f6f" d="m3621.08,2124.42c-6.9,0-12.5-5.6-12.5-12.5v-81.69c0-6.9,5.6-12.5,12.5-12.5s12.5,5.6,12.5,12.5v81.69c0,6.9-5.6,12.5-12.5,12.5Z"/>
    <path class="uuid-1b6cc7b0-86f4-407e-9a42-f3fde36e2f6f" d="m3661.92,2083.58h-81.69c-6.9,0-12.5-5.6-12.5-12.5s5.6-12.5,12.5-12.5h81.69c6.9,0,12.5,5.6,12.5,12.5s-5.6,12.5-12.5,12.5Z"/>
  </g>
  <g>
    <path class="uuid-3f2705ab-d736-485d-970c-7e4ec78f2151" d="m447.19,1951.49c-6.9,0-12.5-5.6-12.5-12.5v-81.69c0-6.9,5.6-12.5,12.5-12.5s12.5,5.6,12.5,12.5v81.69c0,6.9-5.6,12.5-12.5,12.5Z"/>
    <path class="uuid-3f2705ab-d736-485d-970c-7e4ec78f2151" d="m488.03,1910.65h-81.69c-6.9,0-12.5-5.6-12.5-12.5s5.6-12.5,12.5-12.5h81.69c6.9,0,12.5,5.6,12.5,12.5s-5.6,12.5-12.5,12.5Z"/>
  </g>
  <path class="uuid-20581a1c-8c36-4e6b-ba8c-80399f6df6f6" d="m3478.46,1839.6c-26.99,0-48.95-21.96-48.95-48.96s21.96-48.95,48.95-48.95,48.96,21.96,48.96,48.95-21.96,48.96-48.96,48.96Zm0-72.91c-13.21,0-23.95,10.75-23.95,23.95s10.74,23.96,23.95,23.96,23.96-10.75,23.96-23.96-10.75-23.95-23.96-23.95Z"/>
  <path class="uuid-20581a1c-8c36-4e6b-ba8c-80399f6df6f6" d="m588.48,2215.12c-32.92,0-59.7-26.78-59.7-59.7s26.78-59.7,59.7-59.7,59.7,26.78,59.7,59.7-26.78,59.7-59.7,59.7Zm0-94.4c-19.14,0-34.7,15.57-34.7,34.7s15.57,34.7,34.7,34.7,34.7-15.57,34.7-34.7-15.57-34.7-34.7-34.7Z"/>
  <path class="uuid-aa8ca01e-7628-4306-8a0b-14985e97dc3e" d="m600.26,1660.83c-3.47,0-6.83-1.45-9.22-4.06l-60.67-66.32c-3.01-3.3-4.04-7.95-2.7-12.21,1.35-4.26,4.86-7.48,9.22-8.44l87.78-19.38c4.37-.94,8.91.48,11.92,3.77,3.01,3.3,4.04,7.95,2.7,12.21l-27.1,85.71c-1.35,4.26-4.86,7.48-9.22,8.44-.9.2-1.8.29-2.7.29Zm-36.84-71.28l31.45,34.38,14.05-44.42-45.49,10.05Z"/>
  <path class="uuid-20581a1c-8c36-4e6b-ba8c-80399f6df6f6" d="m3360,3218.34H720c-10.12,0-18.33-8.21-18.33-18.34s8.21-18.33,18.33-18.33h2640c10.12,0,18.33,8.21,18.33,18.33s-8.21,18.34-18.33,18.34Z"/>
</svg>